<svg width="4151" height="1180" viewBox="0 0 4151 1180" fill="none" xmlns="http://www.w3.org/2000/svg">
<path d="M1984.67 80.0519C1689.57 96.1047 1396.65 139.928 1109.78 210.941L1116.67 221.274C1116.67 221.274 1361.11 169.385 1812.89 280.496C2264.67 391.607 2294.44 480.496 2790.67 480.496C3286.89 480.496 3768.44 362.052 3768.44 362.052L3708.22 328.719C3262.67 140.163 2652 42.7185 1984.67 80.0519Z" fill="#92E3A9"/>
<path opacity="0.5" d="M2319.38 79.5225C2023.96 71.4925 1728.44 91.3177 1436.74 138.735L1442.76 149.595C1442.76 149.595 1690.62 117.783 2131.85 265.313C2573.08 412.844 2595.52 503.862 3090.1 544.27C3584.67 584.677 4074.27 505.839 4074.27 505.839L4016.96 467.713C3588.24 243.502 2987.54 96.6542 2319.38 79.5225Z" fill="white"/>
<path d="M897.556 334.274C897.556 334.274 1480.89 245.385 1986.44 584.273" stroke="#263238" stroke-linecap="round" stroke-linejoin="round"/>
<path d="M1498.17 328.297C1498.17 328.297 2082.8 408.178 2471.74 876.32" stroke="#263238" stroke-linecap="round" stroke-linejoin="round"/>
<path d="M1909.38 379.153C1909.38 379.153 2460.59 589.736 2733.04 1133.98" stroke="#263238" stroke-linecap="round" stroke-linejoin="round"/>
<path d="M1914.61 323.296C1914.61 323.296 2586.31 540.985 2942.24 1179.08" stroke="#263238" stroke-linecap="round" stroke-linejoin="round"/>
<path d="M1508.67 462.052C1508.67 462.052 1747.56 534.274 1892 689.83" stroke="#263238" stroke-linecap="round" stroke-linejoin="round"/>
<path d="M2919.78 178.718C2919.78 178.718 3258.67 212.052 3564.22 395.385" stroke="#263238" stroke-linecap="round" stroke-linejoin="round"/>
<path d="M3976.44 465.829C4037.47 503.173 4095.56 545.109 4150.22 591.274" stroke="#263238" stroke-linecap="round" stroke-linejoin="round"/>
<path d="M1 727.941C406 383.496 1137.78 127.94 1984.67 80.0514C2757.67 36.1625 3454.89 174.607 3906.89 424.496" stroke="#263238" stroke-linecap="round" stroke-linejoin="round"/>
<path d="M2469.78 173.163C2469.78 173.163 2819.78 189.829 3053.11 267.607" stroke="#263238" stroke-linecap="round" stroke-linejoin="round"/>
</svg>
