<svg width="4151" height="1180" viewBox="0 0 4151 1180" fill="none" xmlns="http://www.w3.org/2000/svg">
<path d="M1984.67 79.6217C1689.57 95.6745 1396.65 139.498 1109.78 210.511L1116.67 220.844C1116.67 220.844 1361.11 168.955 1812.89 280.066C2264.67 391.177 2294.44 480.066 2790.67 480.066C3286.89 480.066 3768.44 361.622 3768.44 361.622L3708.22 328.288C3262.67 139.733 2652 42.2883 1984.67 79.6217Z" fill="#E392D1"/>
<path opacity="0.5" d="M2319.38 79.0923C2023.96 71.0623 1728.44 90.8875 1436.74 138.304L1442.76 149.164C1442.76 149.164 1690.62 117.353 2131.85 264.883C2573.08 412.414 2595.52 503.432 3090.1 543.84C3584.67 584.247 4074.27 505.409 4074.27 505.409L4016.96 467.283C3588.24 243.072 2987.54 96.2241 2319.38 79.0923Z" fill="white"/>
<path d="M897.556 333.843C897.556 333.843 1480.89 244.954 1986.44 583.843" stroke="#263238" stroke-linecap="round" stroke-linejoin="round"/>
<path d="M1498.17 327.866C1498.17 327.866 2082.8 407.748 2471.74 875.89" stroke="#263238" stroke-linecap="round" stroke-linejoin="round"/>
<path d="M1909.38 378.723C1909.38 378.723 2460.59 589.306 2733.04 1133.55" stroke="#263238" stroke-linecap="round" stroke-linejoin="round"/>
<path d="M1914.61 322.866C1914.61 322.866 2586.31 540.554 2942.24 1178.65" stroke="#263238" stroke-linecap="round" stroke-linejoin="round"/>
<path d="M1508.67 461.622C1508.67 461.622 1747.56 533.844 1892 689.399" stroke="#263238" stroke-linecap="round" stroke-linejoin="round"/>
<path d="M2919.78 178.288C2919.78 178.288 3258.67 211.621 3564.22 394.955" stroke="#263238" stroke-linecap="round" stroke-linejoin="round"/>
<path d="M3976.44 465.399C4037.47 502.743 4095.56 544.679 4150.22 590.843" stroke="#263238" stroke-linecap="round" stroke-linejoin="round"/>
<path d="M1 727.51C406 383.066 1137.78 127.51 1984.67 79.6212C2757.67 35.7323 3454.89 174.177 3906.89 424.066" stroke="#263238" stroke-linecap="round" stroke-linejoin="round"/>
<path d="M2469.78 172.732C2469.78 172.732 2819.78 189.399 3053.11 267.177" stroke="#263238" stroke-linecap="round" stroke-linejoin="round"/>
<path d="M2332.79 240.546C2332.79 240.546 2895.63 265.935 3277.21 463.456" stroke="white" stroke-width="20" stroke-linecap="round" stroke-linejoin="round"/>
<path d="M2747 283.932C2747 283.932 3309.84 309.321 3691.43 506.842" stroke="white" stroke-width="20" stroke-linecap="round" stroke-linejoin="round"/>
<path d="M1859.9 130.61C1859.9 130.61 2417.73 209.764 2778.65 442.907" stroke="white" stroke-width="20" stroke-linecap="round" stroke-linejoin="round"/>
</svg>
