<svg width="49" height="16" viewBox="0 0 49 16" fill="none" xmlns="http://www.w3.org/2000/svg">
<path d="M0.6675 16C0.475833 16 0.38 15.9042 0.38 15.7125V0.957999C0.38 0.766333 0.475833 0.670499 0.6675 0.670499H3.738C3.92967 0.670499 4.0255 0.766333 4.0255 0.957999V3.35H6.82C6.99633 3.35 7.14967 3.41517 7.28 3.5455L9.58 5.8455C9.71033 5.96817 9.7755 6.1215 9.7755 6.3055V15.7125C9.7755 15.9042 9.67967 16 9.488 16H6.4175C6.22583 16 6.13 15.9042 6.13 15.7125V6.708C6.13 6.386 5.969 6.225 5.647 6.225H4.0255V15.7125C4.0255 15.9042 3.92967 16 3.738 16H0.6675ZM12.7515 16C12.5598 16 12.464 15.9042 12.464 15.7125V3.6375C12.464 3.44583 12.5598 3.35 12.7515 3.35H15.8105C16.0022 3.35 16.098 3.44583 16.098 3.6375V15.7125C16.098 15.9042 16.0022 16 15.8105 16H12.7515ZM12.694 2.3955C12.5407 2.3955 12.464 2.31883 12.464 2.1655V0.705C12.464 0.551666 12.5407 0.475 12.694 0.475H15.891C16.029 0.475 16.098 0.551666 16.098 0.705V2.1655C16.098 2.31883 16.029 2.3955 15.891 2.3955H12.694ZM21.6505 16C21.4742 16 21.3208 15.9348 21.1905 15.8045L18.8905 13.5045C18.7602 13.3818 18.695 13.2285 18.695 13.0445V3.6375C18.695 3.44583 18.7908 3.35 18.9825 3.35H22.053C22.2447 3.35 22.3405 3.44583 22.3405 3.6375V13.125H24.445V3.6375C24.445 3.44583 24.5408 3.35 24.7325 3.35H27.803C27.9947 3.35 28.0905 3.44583 28.0905 3.6375V13.0445C28.0905 13.2285 28.0253 13.3818 27.895 13.5045L25.595 15.8045C25.4723 15.9348 25.319 16 25.135 16H21.6505ZM35.9216 16C35.845 16 35.7606 15.9885 35.6686 15.9655C35.5843 15.9425 35.5038 15.9233 35.4271 15.908L33.3801 15.402L31.0341 14.62C30.8041 14.5433 30.6891 14.321 30.6891 13.953V6.3055C30.6891 6.1215 30.7543 5.96817 30.8846 5.8455L33.1846 3.5455C33.315 3.41517 33.4683 3.35 33.6446 3.35H37.3246C37.501 3.35 37.6543 3.41517 37.7846 3.5455L40.0846 5.8455C40.215 5.96817 40.2801 6.1215 40.2801 6.3055V11.0205H34.1046L34.0241 12.55L35.6571 13.0905L38.5896 13.2975C38.72 13.3205 38.7851 13.4087 38.7851 13.562V15.7125C38.7851 15.9042 38.6893 16 38.4976 16H35.9216ZM35.4616 9.215H35.6801C36.0558 9.215 36.3548 9.07317 36.5771 8.7895C36.8071 8.50583 36.9221 8.1225 36.9221 7.6395V7.4095C36.9221 6.93417 36.8071 6.55467 36.5771 6.271C36.3548 5.98733 36.0558 5.8455 35.6801 5.8455H35.4501C35.0821 5.8455 34.787 5.98733 34.5646 6.271C34.35 6.55467 34.2426 6.93417 34.2426 7.4095V7.6395C34.2426 8.1225 34.35 8.50583 34.5646 8.7895C34.787 9.07317 35.086 9.215 35.4616 9.215ZM42.6049 16C42.4133 16 42.3174 15.9042 42.3174 15.7125V13.8495C42.3174 13.6732 42.3749 13.5582 42.4899 13.5045L44.8359 12.113V10.917L42.4899 9.652C42.3749 9.583 42.3174 9.46417 42.3174 9.2955V5.627C42.3174 5.54267 42.3289 5.47367 42.3519 5.42C42.3826 5.36633 42.4248 5.32033 42.4784 5.282L44.9279 3.488C45.0123 3.42667 45.0813 3.38833 45.1349 3.373C45.1886 3.35767 45.2423 3.35 45.2959 3.35H48.0904C48.2821 3.35 48.3779 3.44583 48.3779 3.6375V5.443C48.3779 5.57333 48.3664 5.6615 48.3434 5.7075C48.3281 5.7535 48.2898 5.79183 48.2284 5.8225L46.0549 6.9955V8.3295L48.3779 9.4795C48.5083 9.53317 48.5734 9.64817 48.5734 9.8245V13.355C48.5734 13.5467 48.5083 13.7 48.3779 13.815L45.9284 15.8505C45.8058 15.9502 45.6524 16 45.4684 16H42.6049Z" fill="#FFB400"/>
</svg>
