<svg width="341" height="110" viewBox="0 0 341 110" fill="none" xmlns="http://www.w3.org/2000/svg">
<path d="M2.745 110C1.395 110 0.72 109.325 0.72 107.975V4.05199C0.72 2.70199 1.395 2.02699 2.745 2.02699H24.372C25.722 2.02699 26.397 2.70199 26.397 4.05199V20.9H46.08C47.322 20.9 48.402 21.359 49.32 22.277L65.52 38.477C66.438 39.341 66.897 40.421 66.897 41.717V107.975C66.897 109.325 66.222 110 64.872 110H43.245C41.895 110 41.22 109.325 41.22 107.975V44.552C41.22 42.284 40.086 41.15 37.818 41.15H26.397V107.975C26.397 109.325 25.722 110 24.372 110H2.745ZM87.4533 14.177C86.3733 14.177 85.8333 13.637 85.8333 12.557V2.27C85.8333 1.19 86.3733 0.649998 87.4533 0.649998H109.971C110.943 0.649998 111.429 1.19 111.429 2.27V12.557C111.429 13.637 110.943 14.177 109.971 14.177H87.4533ZM87.8583 110C86.5083 110 85.8333 109.325 85.8333 107.975V22.925C85.8333 21.575 86.5083 20.9 87.8583 20.9H109.404C110.754 20.9 111.429 21.575 111.429 22.925V107.975C111.429 109.325 110.754 110 109.404 110H87.8583ZM150.538 110C149.296 110 148.216 109.541 147.298 108.623L131.098 92.423C130.18 91.559 129.721 90.479 129.721 89.183V22.925C129.721 21.575 130.396 20.9 131.746 20.9H153.373C154.723 20.9 155.398 21.575 155.398 22.925V89.75H170.221V22.925C170.221 21.575 170.896 20.9 172.246 20.9H193.873C195.223 20.9 195.898 21.575 195.898 22.925V89.183C195.898 90.479 195.439 91.559 194.521 92.423L178.321 108.623C177.457 109.541 176.377 110 175.081 110H150.538ZM251.057 110C250.517 110 249.923 109.919 249.275 109.757C248.681 109.595 248.114 109.46 247.574 109.352L233.156 105.788L216.632 100.28C215.012 99.74 214.202 98.174 214.202 95.582V41.717C214.202 40.421 214.661 39.341 215.579 38.477L231.779 22.277C232.697 21.359 233.777 20.9 235.019 20.9H260.939C262.181 20.9 263.261 21.359 264.179 22.277L280.379 38.477C281.297 39.341 281.756 40.421 281.756 41.717V74.927H238.259L237.692 85.7L249.194 89.507L269.849 90.965C270.767 91.127 271.226 91.748 271.226 92.828V107.975C271.226 109.325 270.551 110 269.201 110H251.057ZM247.817 62.21H249.356C252.002 62.21 254.108 61.211 255.674 59.213C257.294 57.215 258.104 54.515 258.104 51.113V49.493C258.104 46.145 257.294 43.472 255.674 41.474C254.108 39.476 252.002 38.477 249.356 38.477H247.736C245.144 38.477 243.065 39.476 241.499 41.474C239.987 43.472 239.231 46.145 239.231 49.493V51.113C239.231 54.515 239.987 57.215 241.499 59.213C243.065 61.211 245.171 62.21 247.817 62.21ZM298.13 110C296.78 110 296.105 109.325 296.105 107.975V94.853C296.105 93.611 296.51 92.801 297.32 92.423L313.844 82.622V74.198L297.32 65.288C296.51 64.802 296.105 63.965 296.105 62.777V36.938C296.105 35.858 296.483 35.048 297.239 34.508L314.492 21.872C315.464 21.224 316.328 20.9 317.084 20.9H336.767C338.117 20.9 338.792 21.575 338.792 22.925V35.642C338.792 36.56 338.711 37.181 338.549 37.505C338.441 37.829 338.171 38.099 337.739 38.315L322.43 46.577V55.973L338.792 64.073C339.71 64.451 340.169 65.261 340.169 66.503V91.37C340.169 92.72 339.71 93.8 338.792 94.61L321.539 108.947C320.675 109.649 319.595 110 318.299 110H298.13Z" fill="#0A9D34"/>
</svg>
