<svg width="112" height="110" viewBox="0 0 112 110" fill="none" xmlns="http://www.w3.org/2000/svg">
<path d="M29.7773 41.5857C29.7773 43.687 30.8766 45.6351 32.6752 46.7215L36.4117 48.9785L39.4492 50.6111L48.7564 56.0589C49.1101 56.2659 49.483 55.8212 49.2175 55.509L38.8563 45.8303C37.6416 44.6956 36.9521 43.1079 36.9521 41.4457V41.0205V21.3823C36.9521 19.9935 37.5497 18.6718 38.5924 17.7544L55.3507 3.01114C55.6045 2.7878 55.3685 2.37716 55.0477 2.48409C55.0161 2.49463 54.983 2.5 54.9497 2.5H54.7993C54.6026 2.5 54.4087 2.54694 54.2338 2.63691L39.4492 10.2409L32.8148 14.0078C30.9373 15.0738 29.7773 17.0663 29.7773 19.2254V41.5857Z" fill="#FFAD00" fill-opacity="0.5"/>
<path d="M51.2501 4.98438C54.1754 3.35969 57.7123 3.30888 60.6758 4.83203L60.961 4.98438L76.2637 13.4834C79.4388 15.247 81.4083 18.5936 81.4083 22.2256V38.4297C81.4082 41.9482 79.5599 45.199 76.5577 47.002L76.2637 47.1719L60.961 55.6709C58.0358 57.2956 54.4987 57.3463 51.5352 55.8232L51.2501 55.6709L35.9473 47.1719C32.7721 45.4084 30.8029 42.0617 30.8028 38.4297V22.2256C30.8028 18.707 32.6511 15.4563 35.6534 13.6533L35.9473 13.4834L51.2501 4.98438Z" fill="#FFAD00" fill-opacity="0.2" stroke="#FFAD00" stroke-width="4" stroke-linejoin="round"/>
<path d="M0.974426 89.9706C0.974426 92.0719 2.07364 94.02 3.87225 95.1064L7.60876 97.3634L10.6463 98.996L19.9535 104.444C20.3072 104.651 20.6801 104.206 20.4146 103.894L10.0534 94.2152C8.83869 93.0805 8.14914 91.4928 8.14914 89.8306V89.4054V70.2892C8.14914 68.5682 8.88815 66.9301 10.1783 65.7911L26.3755 51.4927C26.7673 51.1468 26.5227 50.5 26 50.5C25.6719 50.5 25.3492 50.5825 25.0613 50.74L10.6463 58.6258L4.01193 62.3927C2.13442 63.4587 0.974426 65.4512 0.974426 67.6103V89.9706Z" fill="#FFAD00" fill-opacity="0.5"/>
<path d="M22.4473 53.3693C25.3726 51.7446 28.9095 51.6938 31.873 53.2169L32.1582 53.3693L47.4609 61.8683C50.636 63.6318 52.6055 66.9785 52.6055 70.6105V86.8146C52.6054 90.3331 50.7571 93.5838 47.7549 95.3868L47.4609 95.5568L32.1582 104.056C29.233 105.68 25.6959 105.731 22.7324 104.208L22.4473 104.056L7.14453 95.5568C3.96934 93.7933 2.00007 90.4466 2 86.8146V70.6105C2.00001 67.0918 3.84826 63.8412 6.85059 62.0382L7.14453 61.8683L22.4473 53.3693Z" fill="#FFAD00" fill-opacity="0.2" stroke="#FFAD00" stroke-width="4" stroke-linejoin="round"/>
<path d="M58.3691 89.9706C58.3691 92.0719 59.4684 94.02 61.267 95.1064L65.0035 97.3634L68.041 98.996L77.3482 104.444C77.7019 104.651 78.0748 104.206 77.8093 103.894L67.4481 94.2152C66.2334 93.0805 65.5439 91.4928 65.5439 89.8306V89.4054V70.3718C65.5439 68.6031 66.3242 66.9245 67.6765 65.7845L84.2856 51.7819C84.6015 51.5156 84.4132 51 84 51C83.6711 51 83.3466 51.0757 83.0516 51.2212L68.041 58.6258L61.4066 62.3927C59.5291 63.4587 58.3691 65.4512 58.3691 67.6103V89.9706Z" fill="#FFAD00" fill-opacity="0.5"/>
<path d="M79.842 53.3693C82.7673 51.7446 86.3043 51.6938 89.2678 53.2169L89.553 53.3693L104.856 61.8683C108.031 63.6318 110 66.9785 110 70.6105V86.8146C110 90.3331 108.152 93.5838 105.15 95.3868L104.856 95.5568L89.553 104.056C86.6278 105.68 83.0907 105.731 80.1272 104.208L79.842 104.056L64.5393 95.5568C61.3641 93.7933 59.3948 90.4466 59.3948 86.8146V70.6105C59.3948 67.0918 61.243 63.8412 64.2454 62.0382L64.5393 61.8683L79.842 53.3693Z" fill="#FFAD00" fill-opacity="0.2" stroke="#FFAD00" stroke-width="4" stroke-linejoin="round"/>
</svg>
